# xmcd
#
# Track frame offsets:
#	150
#	14632
#	29458
#	43862
#	56823
#	71098
#	85986
#	100105
#	113324
#	126220
#	138516
#	153419
#	167366
#	185337
#
# Disc length: 2719 seconds
#
# Revision: 0
# Processed by: cddbd v1.5.2PL0 Copyright (c) Steve Scherf et al.
# Submitted via: EasyCDDAExtractor 16.0.8.2
#
DISCID=ba0a9d0e
DTITLE=Άνευ ερμηνευτού - Παραδ. χοροί κ τραγούδια 4 Κρητικά-Νησιώτικα
DYEAR=2006
DGENRE=Παραδοσιακή
TTITLE0=Άνευ ερμηνευτού - Μαλεβιζιώτικος
TTITLE1=Άγνωστος - Πεντοζάλης χανιώτικος
TTITLE2=Άνευ ερμηνευτού - Κρητικός συρτός
TTITLE3=Άγνωστος - Μαντινάδες
TTITLE4=Άνευ ερμηνευτού - Πεντοζάλης
TTITLE5=Άνευ ερμηνευτού - Πηδηχτός
TTITLE6=Άνευ ερμηνευτού - Σητειακός
TTITLE7=Άνευ ερμηνευτού - Σούστα
TTITLE8=Άνευ ερμηνευτού - Τού γάμου
TTITLE9=Άνευ ερμηνευτού - Περιβολάρης
TTITLE10=Άνευ ερμηνευτού - Αμοριανό
TTITLE11=Άνευ ερμηνευτού - Εκλογικός
TTITLE12=Άνευ ερμηνευτού - Βοθριατικός μπάλλος
TTITLE13=Άνευ ερμηνευτού - Μπάλλος (Αγάπαμε, αγάπαμε)
EXTD=
EXTT0=
EXTT1=
EXTT2=
EXTT3=
EXTT4=
EXTT5=
EXTT6=
EXTT7=
EXTT8=
EXTT9=
EXTT10=
EXTT11=
EXTT12=
EXTT13=
PLAYORDER=
